<svg id="DESIGNED_BY_FREEPIK" data-name="DESIGNED BY FREEPIK" xmlns="http://www.w3.org/2000/svg" viewBox="0 0 15.39 14.78"><defs><style>.cls-1{fill:#f9fbfc;}</style></defs><path class="cls-1" d="M385.1,463.78a7.3,7.3,0,0,0-1.1,1.45l-.47-.24a.6.6,0,1,0-.52.73.41.41,0,0,0,.19-.05l.45.24a6.9,6.9,0,0,0-.54,1.74l.74.13a6.55,6.55,0,0,1,1.8-3.47Z" transform="translate(-382.34 -459.59)"/><path class="cls-1" d="M390.59,461.48h-.51l-.07-.62a.71.71,0,0,0,.26-.65.7.7,0,0,0-.79-.62.71.71,0,0,0-.22,1.35l.07.63a7.57,7.57,0,0,0-2.06.64l.33.69a6.81,6.81,0,0,1,3-.67,7.36,7.36,0,0,1,1.48.15l.16-.74A8.23,8.23,0,0,0,390.59,461.48Z" transform="translate(-382.34 -459.59)"/><path class="cls-1" d="M397.19,464a.61.61,0,0,0,.53-.67.6.6,0,0,0-.67-.52.59.59,0,0,0-.53.61l-.42.36a7.82,7.82,0,0,0-1.41-1.14l-.4.64a6.78,6.78,0,0,1,2.56,2.93l.69-.32a7.14,7.14,0,0,0-.94-1.54l.4-.35Z" transform="translate(-382.34 -459.59)"/><path class="cls-1" d="M390,471.69c-.38,0-.77,0-1.15,0a15.87,15.87,0,0,1-2.48-.18,7.94,7.94,0,0,1-1.27-.29,6.2,6.2,0,0,0,11.34-1.38A9.64,9.64,0,0,1,394,471,17.19,17.19,0,0,1,390,471.69Z" transform="translate(-382.34 -459.59)"/><path class="cls-1" d="M390.59,463a6,6,0,0,0-6.08,5.95,5.93,5.93,0,0,0,.14,1.26c.67.48,2.7.89,5.35.73a11.48,11.48,0,0,0,6.67-2.16,5.67,5.67,0,0,0-.05-.58A6,6,0,0,0,390.59,463Zm-2.16,6.52a1.85,1.85,0,1,1,1.85-1.85A1.85,1.85,0,0,1,388.43,469.51Zm4.74-.91a1.36,1.36,0,1,1,1.36-1.36A1.36,1.36,0,0,1,393.17,468.6Z" transform="translate(-382.34 -459.59)"/></svg>