<?xml version="1.0" encoding="utf-8"?>
<!-- Generator: Adobe Illustrator 24.2.0, SVG Export Plug-In . SVG Version: 6.00 Build 0)  -->
<svg version="1.1" xmlns="http://www.w3.org/2000/svg" xmlns:xlink="http://www.w3.org/1999/xlink" x="0px" y="0px"
	 viewBox="0 0 158.7 158" style="enable-background:new 0 0 158.7 158;" xml:space="preserve">
<style type="text/css">
	.st0{display:none;}
	.st1{display:inline;fill:#FFCD38;}
	.st2{fill:#373A40;}
	.st3{display:inline;fill:#FFDD67;}
	.st4{display:inline;fill:#4A4A4A;}
	.st5{display:inline;fill:#686D76;}
	.st6{display:inline;fill:#373A40;}
</style>
<g id="Fondo" class="st0">
	<rect class="st1" width="158.7" height="158.7"/>
</g>
<g id="Capa_1">
	<path class="st2" d="M158.7,15.3c0-3.4-0.6-6.8-2.2-9.9c-1.1-2.2-2.8-3.6-5.1-4.7c-2.3-1.1-4.6-0.6-6.9-0.7
		c-2.3-0.1-4.6,0.1-6.9,0.2c-2.4,0.1-4.7,0.2-7.1,0.3c-4,0-7.9,0.4-11.9,1.1c-1.4,0.3-2.9,0.4-4.3,0.8c-3.1,0.9-6.2,1.9-9.3,2.9
		c-5.3,1.6-10.4,3.5-15,6.5c-3.3,2.2-6.6,4.5-9.7,7c-1.5,1.2-2.6,2.8-4,4.2c-3.4,3.4-6.2,7.2-8.3,11.4c-0.5,1-1.3,1.6-2.5,1.5
		c-1.6-0.2-3.2-0.5-4.8-0.5c-7.4-0.1-14.9,0-22.3,0.7c-4.3,0.4-8.5,0.8-12.5,2.4c-2.9,1.1-5,3.1-6.5,5.8c-1.5,2.6-2.9,5.3-4.5,7.8
		c-1.5,2.5-3.5,4.7-4.9,7.2c-1.8,3.3-3.3,6.7-4.8,10c-1.3,2.7-2.4,5.4-3.7,8c-1.2,2.5-1.7,5.1-1.6,7.9c0,0.9,0.6,2.2,1.2,2.5
		c1.4,0.7,3.1,1,4.7,1.2c2.7,0.3,5.5,0.4,8.2,0.6c1.9,0.2,3.7,0.4,5.5,0.5c1.8,0,3.6-0.2,5.4-0.3c0.6,0,1.1,0,1.7,0
		c2.9,0,5.9,0,8.8,0c0.4,0,0.9,0.3,1.1,0.7c0.1,0.2-0.2,0.7-0.4,1c-0.5,0.7-1,1.4-1.5,2.1c-0.9,1.5-1.9,2.8-2.4,4.3
		c-0.6,1.8-0.8,3.8,0.7,5.3c2.3,2.5,20.1,20.9,22.9,22.8c1,0.7,2.5,1.2,3.8,1.2c3,0,5.4-1.7,7.6-3.5c0.6-0.5,1.4-0.5,1.9-0.1
		c0.4,0.3,0.5,0.7,0.5,0.9c0.7,2.6,1.3,31.3,3.1,32.5c1,0.7,1.9,0.8,2.5,0.9c1.8,0.3,3.5-0.3,5.3-1.2c2.2-1.2,4.3-2.5,6.5-3.6
		c2.3-1.1,4.8-1.8,7-3c3.3-1.7,6.4-3.8,9.6-5.6c2.8-1.6,5.8-2.9,8.7-4.5c4.2-2.3,7.5-5.4,9.6-9.8c1.1-2.3,1.4-4.6,1.8-6.9
		c0.4-2.4,0.4-4.9,0.3-7.3c-0.2-3.1-1-6.2-1-9.2c0.1-2.4,0.6-4.7,1.4-7.2c0.6-1.8,3.5-6.8,4.7-7.9c2.3-2.2,4.6-4.5,6.8-6.8
		c2.7-2.9,5.4-5.8,7.9-8.8c1.9-2.3,3.9-4.5,5.5-7c1.6-2.4,2.8-5.1,4-7.7c0.9-1.9,1.5-4,2-6c0.6-2.6,0.8-5.3,1.5-7.8
		c0.9-3.4,1.2-6.9,1.3-10.4C158.7,29.9,158.7,22.6,158.7,15.3z M133.4,47.7c-1.1,0.9-4.3,3.6-9.3,4.1c-1.8,0.2-7,0.8-11.3-2.8
		c-4.2-3.5-4.7-8.5-4.8-10.1c-0.3-5.4,2.8-9.3,4.2-11.2c1-1.3,2.9-3.6,6.1-5.2c4.5-2.3,12.3-3.4,17.1,1.2c3.6,3.4,3.7,8.2,3.8,10.2
		C139.4,34.9,139.5,42.5,133.4,47.7z"/>
</g>
<g id="Paleta" class="st0">
	<rect x="177.9" y="13.3" class="st1" width="6.9" height="6.9"/>
	<rect x="177.9" y="21" class="st3" width="6.9" height="6.9"/>
	<rect x="177.9" y="44.5" class="st4" width="6.9" height="6.9"/>
	<rect x="178.1" y="28.8" class="st5" width="6.9" height="6.9"/>
	<text transform="matrix(1 0 0 1 188.286 18.3693)" style="display:inline; font-family:'DMSans-Bold'; font-size:6px;">#FFCD38</text>
	<text transform="matrix(1 0 0 1 188.7928 26.4694)" style="display:inline; font-family:'DMSans-Bold'; font-size:6px;">#FFDD67</text>
	<text transform="matrix(1 0 0 1 188.9535 50.5351)" style="display:inline; font-family:'DMSans-Bold'; font-size:6px;">#4A4A4A</text>
	<text transform="matrix(1 0 0 1 188.9981 33.6845)" style="display:inline; font-family:'DMSans-Bold'; font-size:6px;">#686d76</text>
	<rect x="177.8" y="36.9" class="st6" width="6.9" height="6.9"/>
	<text transform="matrix(1 0 0 1 188.6812 41.687)" style="display:inline; font-family:'DMSans-Bold'; font-size:6px;">#373A40</text>
</g>
</svg>
